# xmcd
#
# Track frame offsets:
#	150
#	13455
#	37560
#	48112
#	73285
#	88400
#	105935
#	128172
#
# Disc length: 1985 seconds
#
# Revision: 2
# Processed by: cddbd v1.5.1PL0 Copyright (c) Steve Scherf et al.
# Submitted via: audiograbber 1.82.02
#
DISCID=6307bf08
DTITLE=Demian - Demian
DYEAR=1971
DGENRE=Classic Rock
TTITLE0=Face the Crowd
TTITLE1=Windy City
TTITLE2=Love People
TTITLE3=Coming
TTITLE4=Todd's Tune
TTITLE5=No More Tenderness
TTITLE6=Are You with Me Baby
TTITLE7=Only a Loner
EXTD=Came from the band named Bubble Puppy
EXTT0=2:53
EXTT1=5:18
EXTT2=2:49
EXTT3=5:30
EXTT4=3:19
EXTT5=3:30
EXTT6=4:54
EXTT7=4:35
PLAYORDER=
